<?xml version="1.0" encoding="UTF-8"?>
<!DOCTYPE svg PUBLIC "-//W3C//DTD SVG 1.1//EN" "http://www.w3.org/Graphics/SVG/1.1/DTD/svg11.dtd">
<svg xmlns="http://www.w3.org/2000/svg" version="1.1" width="1126px" height="897px" style="shape-rendering:geometricPrecision; text-rendering:geometricPrecision; image-rendering:optimizeQuality; fill-rule:evenodd; clip-rule:evenodd" xmlns:xlink="http://www.w3.org/1999/xlink">
<g><path style="opacity:1" fill="#795548" d="M -0.5,-0.5 C 374.833,-0.5 750.167,-0.5 1125.5,-0.5C 1125.5,298.5 1125.5,597.5 1125.5,896.5C 750.167,896.5 374.833,896.5 -0.5,896.5C -0.5,597.5 -0.5,298.5 -0.5,-0.5 Z"/></g>
<g><path style="opacity:1" fill="#f9f7f7" d="M 668.5,201.5 C 668.973,202.906 669.973,203.573 671.5,203.5C 702.755,220.414 723.755,245.748 734.5,279.5C 734.41,282.152 735.076,284.485 736.5,286.5C 737.774,288.993 738.44,291.659 738.5,294.5C 738.28,299.1 738.946,303.433 740.5,307.5C 740.78,321.222 740.113,334.888 738.5,348.5C 737.162,354.854 735.662,361.188 734,367.5C 730.858,373.446 728.025,379.446 725.5,385.5C 723.087,386.68 722.087,388.68 722.5,391.5C 696.23,431.819 658.897,453.986 610.5,458C 575.835,458.5 541.168,458.667 506.5,458.5C 506.667,482.169 506.5,505.836 506,529.5C 505.241,531.063 504.074,532.063 502.5,532.5C 486.119,532.804 469.786,532.471 453.5,531.5C 452.778,531.082 452.278,530.416 452,529.5C 451.333,502.833 451.333,476.167 452,449.5C 452.833,448.667 453.667,447.833 454.5,447C 467.673,446.831 480.673,446.331 493.5,445.5C 494.494,435.681 494.827,425.681 494.5,415.5C 481.5,415.5 468.5,415.5 455.5,415.5C 454.571,414.064 453.405,412.731 452,411.5C 451.333,368.833 451.333,326.167 452,283.5C 453.039,282.29 454.206,281.29 455.5,280.5C 468.833,280.5 482.167,280.5 495.5,280.5C 495.5,264.167 495.5,247.833 495.5,231.5C 496.289,231.217 496.956,230.717 497.5,230C 534.832,229.5 572.165,229.333 609.5,229.5C 641.264,234.109 665.43,250.109 682,277.5C 685.059,283.176 687.225,289.176 688.5,295.5C 689.509,300.283 690.509,304.95 691.5,309.5C 692.747,318.45 692.747,327.45 691.5,336.5C 690.081,344.854 687.748,352.854 684.5,360.5C 683.094,360.973 682.427,361.973 682.5,363.5C 670.547,386.613 652.214,402.446 627.5,411C 617.03,413.995 606.364,415.495 595.5,415.5C 565.833,415.5 536.167,415.5 506.5,415.5C 506.5,425.833 506.5,436.167 506.5,446.5C 541.835,446.667 577.168,446.5 612.5,446C 616.356,445.823 620.023,445.323 623.5,444.5C 638.725,442.37 653.058,437.536 666.5,430C 672.89,425.813 679.224,421.646 685.5,417.5C 689.833,415.167 693.167,411.833 695.5,407.5C 696.833,405.5 698.5,403.833 700.5,402.5C 702.587,401.415 703.92,399.749 704.5,397.5C 714.69,382.451 722.19,366.118 727,348.5C 733.197,319.526 729.697,291.859 716.5,265.5C 716.573,263.973 715.906,262.973 714.5,262.5C 699.783,236.785 678.783,218.118 651.5,206.5C 649.824,204.166 647.491,203.166 644.5,203.5C 636.876,201.514 629.209,199.848 621.5,198.5C 620.737,197.732 619.737,197.232 618.5,197C 564.5,196.667 510.5,196.333 456.5,196C 455.584,195.626 454.75,195.126 454,194.5C 453.505,192.527 453.338,190.527 453.5,188.5C 453.611,187.883 453.944,187.383 454.5,187C 510.833,186.333 567.167,186.333 623.5,187C 639.285,189.568 654.285,194.401 668.5,201.5 Z"/></g>
<g><path style="opacity:1" fill="#e4dedb" d="M 453.5,188.5 C 453.338,190.527 453.505,192.527 454,194.5C 454.75,195.126 455.584,195.626 456.5,196C 510.5,196.333 564.5,196.667 618.5,197C 619.737,197.232 620.737,197.732 621.5,198.5C 566.185,197.687 510.851,197.187 455.5,197C 451.39,194.742 450.723,191.908 453.5,188.5 Z"/></g>
<g><path style="opacity:1" fill="#bfafa9" d="M 668.5,201.5 C 670.027,201.427 671.027,202.094 671.5,203.5C 669.973,203.573 668.973,202.906 668.5,201.5 Z"/></g>
<g><path style="opacity:1" fill="#d4c8c4" d="M 644.5,203.5 C 647.491,203.166 649.824,204.166 651.5,206.5C 648.843,206.065 646.509,205.065 644.5,203.5 Z"/></g>
<g><path style="opacity:1" fill="#e8e2e0" d="M 609.5,229.5 C 572.165,229.333 534.832,229.5 497.5,230C 496.956,230.717 496.289,231.217 495.5,231.5C 495.414,230.504 495.748,229.671 496.5,229C 534.336,228.169 572.002,228.336 609.5,229.5 Z"/></g>
<g><path style="opacity:1" fill="#7a564a" d="M 620.5,401.5 C 616.64,401.808 612.974,402.475 609.5,403.5C 575.337,404.498 541.004,404.832 506.5,404.5C 506.5,366.833 506.5,329.167 506.5,291.5C 539.168,291.333 571.835,291.5 604.5,292C 622.031,297.575 629.531,309.409 627,327.5C 624.352,336.823 618.852,343.823 610.5,348.5C 608.597,348.796 606.93,349.463 605.5,350.5C 605.167,350.5 604.833,350.5 604.5,350.5C 588.833,350.5 573.167,350.5 557.5,350.5C 557.5,343.167 557.5,335.833 557.5,328.5C 570.011,328.829 582.345,328.495 594.5,327.5C 599.824,326.67 601.658,323.67 600,318.5C 599.097,317.299 597.931,316.465 596.5,316C 579.742,315.03 563.075,315.363 546.5,317C 545.874,317.75 545.374,318.584 545,319.5C 544.333,332.5 544.333,345.5 545,358.5C 545.785,360.286 546.951,361.786 548.5,363C 567.526,363.858 586.526,363.524 605.5,362C 618.245,358.726 627.912,351.559 634.5,340.5C 635.906,340.027 636.573,339.027 636.5,337.5C 639.165,329.517 639.832,321.517 638.5,313.5C 638.472,310.084 637.472,307.084 635.5,304.5C 629.249,291.365 618.916,283.532 604.5,281C 571.835,280.5 539.168,280.333 506.5,280.5C 506.5,266.833 506.5,253.167 506.5,239.5C 542.207,239.033 577.874,239.533 613.5,241C 649.64,249.298 671.807,271.465 680,307.5C 683.68,353.823 663.847,385.156 620.5,401.5 Z"/></g>
<g><path style="opacity:1" fill="#d8cecb" d="M 495.5,231.5 C 495.5,247.833 495.5,264.167 495.5,280.5C 482.167,280.5 468.833,280.5 455.5,280.5C 468.323,279.505 481.323,279.171 494.5,279.5C 494.17,263.325 494.504,247.325 495.5,231.5 Z"/></g>
<g><path style="opacity:1" fill="#b5a19a" d="M 714.5,262.5 C 715.906,262.973 716.573,263.973 716.5,265.5C 715.094,265.027 714.427,264.027 714.5,262.5 Z"/></g>
<g><path style="opacity:1" fill="#d0c4bf" d="M 734.5,279.5 C 735.924,281.515 736.59,283.848 736.5,286.5C 735.076,284.485 734.41,282.152 734.5,279.5 Z"/></g>
<g><path style="opacity:1" fill="#7a564a" d="M 493.5,292.5 C 494.833,329.5 494.833,366.5 493.5,403.5C 483.917,403.818 474.417,403.485 465,402.5C 464.5,365.835 464.333,329.168 464.5,292.5C 474.167,292.5 483.833,292.5 493.5,292.5 Z"/></g>
<g><path style="opacity:1" fill="#a58d84" d="M 493.5,292.5 C 483.833,292.5 474.167,292.5 464.5,292.5C 464.333,329.168 464.5,365.835 465,402.5C 474.417,403.485 483.917,403.818 493.5,403.5C 483.765,404.829 473.931,404.829 464,403.5C 463.5,366.168 463.333,328.835 463.5,291.5C 473.681,291.173 483.681,291.506 493.5,292.5 Z"/></g>
<g><path style="opacity:1" fill="#d1c5c1" d="M 688.5,295.5 C 690.483,298.799 691.483,302.466 691.5,306.5C 691.5,307.5 691.5,308.5 691.5,309.5C 690.509,304.95 689.509,300.283 688.5,295.5 Z"/></g>
<g><path style="opacity:1" fill="#d6ccc8" d="M 738.5,294.5 C 740.054,298.567 740.72,302.9 740.5,307.5C 738.946,303.433 738.28,299.1 738.5,294.5 Z"/></g>
<g><path style="opacity:1" fill="#d0c3bf" d="M 635.5,304.5 C 637.472,307.084 638.472,310.084 638.5,313.5C 636.69,310.855 635.69,307.855 635.5,304.5 Z"/></g>
<g><path style="opacity:1" fill="#94776c" d="M 691.5,306.5 C 692.268,307.263 692.768,308.263 693,309.5C 693.667,318.167 693.667,326.833 693,335.5C 692.617,336.056 692.117,336.389 691.5,336.5C 692.747,327.45 692.747,318.45 691.5,309.5C 691.5,308.5 691.5,307.5 691.5,306.5 Z"/></g>
<g><path style="opacity:1" fill="#d8cdca" d="M 740.5,307.5 C 741.658,316.657 741.824,325.991 741,335.5C 740.728,340.076 739.895,344.409 738.5,348.5C 740.113,334.888 740.78,321.222 740.5,307.5 Z"/></g>
<g><path style="opacity:1" fill="#b8a59e" d="M 636.5,337.5 C 636.573,339.027 635.906,340.027 634.5,340.5C 634.427,338.973 635.094,337.973 636.5,337.5 Z"/></g>
<g><path style="opacity:1" fill="#c3b3ad" d="M 610.5,348.5 C 609.365,350.213 607.698,350.88 605.5,350.5C 606.93,349.463 608.597,348.796 610.5,348.5 Z"/></g>
<g><path style="opacity:1" fill="#8b6b60" d="M 594.5,327.5 C 582.345,328.495 570.011,328.829 557.5,328.5C 557.5,335.833 557.5,343.167 557.5,350.5C 573.167,350.5 588.833,350.5 604.5,350.5C 588.675,351.496 572.675,351.83 556.5,351.5C 556.5,343.5 556.5,335.5 556.5,327.5C 569.167,327.5 581.833,327.5 594.5,327.5 Z"/></g>
<g><path style="opacity:1" fill="#c3b2ad" d="M 684.5,360.5 C 684.573,362.027 683.906,363.027 682.5,363.5C 682.427,361.973 683.094,360.973 684.5,360.5 Z"/></g>
<g><path style="opacity:1" fill="#cdbfbb" d="M 725.5,385.5 C 725.008,387.819 724.008,389.819 722.5,391.5C 722.087,388.68 723.087,386.68 725.5,385.5 Z"/></g>
<g><path style="opacity:1" fill="#d4c9c5" d="M 704.5,397.5 C 703.92,399.749 702.587,401.415 700.5,402.5C 701.08,400.251 702.413,398.585 704.5,397.5 Z"/></g>
<g><path style="opacity:1" fill="#d0c4bf" d="M 620.5,401.5 C 617.155,403.217 613.489,403.884 609.5,403.5C 612.974,402.475 616.64,401.808 620.5,401.5 Z"/></g>
<g><path style="opacity:1" fill="#dbd1ce" d="M 695.5,407.5 C 693.167,411.833 689.833,415.167 685.5,417.5C 688.5,413.833 691.833,410.5 695.5,407.5 Z"/></g>
<g><path style="opacity:1" fill="#9d8379" d="M 455.5,415.5 C 468.5,415.5 481.5,415.5 494.5,415.5C 494.827,425.681 494.494,435.681 493.5,445.5C 493.5,435.833 493.5,426.167 493.5,416.5C 480.656,416.829 467.989,416.495 455.5,415.5 Z"/></g>
<g><path style="opacity:1" fill="#93766b" d="M 595.5,415.5 C 566.338,416.498 537.005,416.831 507.5,416.5C 507.5,425.833 507.5,435.167 507.5,444.5C 546.167,444.5 584.833,444.5 623.5,444.5C 620.023,445.323 616.356,445.823 612.5,446C 577.168,446.5 541.835,446.667 506.5,446.5C 506.5,436.167 506.5,425.833 506.5,415.5C 536.167,415.5 565.833,415.5 595.5,415.5 Z"/></g>
<g><path style="opacity:1" fill="#795548" d="M 493.5,458.5 C 493.5,479.5 493.5,500.5 493.5,521.5C 483.833,521.5 474.167,521.5 464.5,521.5C 464.5,500.5 464.5,479.5 464.5,458.5C 474.167,458.5 483.833,458.5 493.5,458.5 Z"/></g>
<g><path style="opacity:1" fill="#a48c83" d="M 493.5,458.5 C 494.497,479.327 494.831,500.327 494.5,521.5C 484.5,522.833 474.5,522.833 464.5,521.5C 474.167,521.5 483.833,521.5 493.5,521.5C 493.5,500.5 493.5,479.5 493.5,458.5 Z"/></g>
<g><path style="opacity:1" fill="#e6e0de" d="M 493.5,458.5 C 493.5,458.167 493.5,457.833 493.5,457.5C 494.832,467.812 495.499,478.478 495.5,489.5C 495.5,500.339 495.167,511.005 494.5,521.5C 494.831,500.327 494.497,479.327 493.5,458.5 Z"/></g>
<g><path style="opacity:1" fill="#a58d85" d="M 493.5,457.5 C 493.5,457.833 493.5,458.167 493.5,458.5C 483.833,458.5 474.167,458.5 464.5,458.5C 464.5,479.5 464.5,500.5 464.5,521.5C 463.503,500.34 463.169,479.007 463.5,457.5C 473.5,457.5 483.5,457.5 493.5,457.5 Z"/></g>
<g><path style="opacity:1" fill="#e4dedc" d="M 453.5,531.5 C 469.786,532.471 486.119,532.804 502.5,532.5C 486.672,533.661 470.672,533.828 454.5,533C 453.944,532.617 453.611,532.117 453.5,531.5 Z"/></g>
<g><path style="opacity:1" fill="#9e837a" d="M 445.5,558.5 C 450.985,557.348 456.651,557.182 462.5,558C 463.056,558.383 463.389,558.883 463.5,559.5C 457.559,558.587 451.559,558.254 445.5,558.5 Z"/></g>
<g><path style="opacity:1" fill="#f6f4f3" d="M 397.5,557.5 C 405.726,556.202 412.226,558.869 417,565.5C 417.667,575.5 417.667,585.5 417,595.5C 412.605,603.103 406.105,605.603 397.5,603C 393.502,601.514 391.002,598.68 390,594.5C 389.333,584.5 389.333,574.5 390,564.5C 392.396,561.933 394.896,559.6 397.5,557.5 Z"/></g>
<g><path style="opacity:1" fill="#f1eeec" d="M 664.5,587.5 C 662.369,586.686 660.036,586.186 657.5,586C 656.483,584.951 656.316,583.784 657,582.5C 660.73,581.54 664.563,581.207 668.5,581.5C 668.833,581.5 669.167,581.5 669.5,581.5C 670.36,585.434 670.693,589.434 670.5,593.5C 669.844,598.287 667.178,601.454 662.5,603C 652.78,606.056 646.28,602.889 643,593.5C 642.333,584.5 642.333,575.5 643,566.5C 650.095,556.051 658.761,554.718 669,562.5C 671.412,565.797 671.912,569.297 670.5,573C 668.741,573.798 667.074,573.631 665.5,572.5C 663.082,563.374 657.915,561.374 650,566.5C 649.053,576.267 649.387,585.934 651,595.5C 654.647,597.994 658.481,598.16 662.5,596C 664.179,593.435 664.846,590.602 664.5,587.5 Z"/></g>
<g><path style="opacity:1" fill="#f6f3f3" d="M 341.5,559.5 C 341.973,560.906 342.973,561.573 344.5,561.5C 346.173,562.343 347.34,563.676 348,565.5C 350.19,575.13 346.69,581.463 337.5,584.5C 333.833,584.5 330.167,584.5 326.5,584.5C 326.5,589.833 326.5,595.167 326.5,600.5C 325.644,603.513 323.811,604.18 321,602.5C 320.333,588.167 320.333,573.833 321,559.5C 327.803,558.219 334.636,558.219 341.5,559.5 Z"/></g>
<g><path style="opacity:1" fill="#f6f4f4" d="M 380.5,596.5 C 381.219,598.764 381.552,601.097 381.5,603.5C 379.278,603.822 377.444,603.155 376,601.5C 373.056,594.921 369.056,589.254 364,584.5C 362.893,584.585 361.893,584.919 361,585.5C 360.667,591.167 360.333,596.833 360,602.5C 358.333,603.833 356.667,603.833 355,602.5C 354.177,587.925 354.344,573.425 355.5,559C 361.5,558.333 367.5,558.333 373.5,559C 381.518,562.204 384.351,568.037 382,576.5C 379.811,580.022 376.978,582.855 373.5,585C 376.043,588.709 378.376,592.542 380.5,596.5 Z"/></g>
<g><path style="opacity:1" fill="#f2efed" d="M 445.5,558.5 C 451.559,558.254 457.559,558.587 463.5,559.5C 471.051,562.944 473.385,568.61 470.5,576.5C 469.094,576.973 468.427,577.973 468.5,579.5C 466.349,581.15 464.349,582.983 462.5,585C 465.202,589.568 468.035,594.068 471,598.5C 472.167,602.667 470.667,604.167 466.5,603C 462.354,597.187 458.354,591.354 454.5,585.5C 452.735,584.539 450.735,584.205 448.5,584.5C 448.5,590.5 448.5,596.5 448.5,602.5C 446.777,603.807 444.943,603.807 443,602.5C 442.333,588.5 442.333,574.5 443,560.5C 443.708,559.619 444.542,558.953 445.5,558.5 Z"/></g>
<g><path style="opacity:1" fill="#f1edec" d="M 496.5,578.5 C 496.5,580.167 496.5,581.833 496.5,583.5C 492.167,583.5 487.833,583.5 483.5,583.5C 483.5,587.833 483.5,592.167 483.5,596.5C 489.842,596.334 496.175,596.5 502.5,597C 505.033,599.084 505.033,601.084 502.5,603C 494.5,603.667 486.5,603.667 478.5,603C 478,602.5 477.5,602 477,601.5C 476.333,587.5 476.333,573.5 477,559.5C 485.755,558.35 494.588,558.184 503.5,559C 504.991,561.022 504.658,562.688 502.5,564C 496.175,564.5 489.842,564.666 483.5,564.5C 483.5,568.833 483.5,573.167 483.5,577.5C 487.931,577.231 492.265,577.564 496.5,578.5 Z"/></g>
<g><path style="opacity:1" fill="#f5f3f2" d="M 511.5,558.5 C 517.842,558.334 524.175,558.5 530.5,559C 538.09,562.521 540.59,568.355 538,576.5C 536.108,580.058 533.275,582.558 529.5,584C 525.247,584.2 521.08,584.7 517,585.5C 516.667,591.167 516.333,596.833 516,602.5C 514.333,603.833 512.667,603.833 511,602.5C 510.185,587.759 510.351,573.092 511.5,558.5 Z"/></g>
<g><path style="opacity:1" fill="#f7f5f4" d="M 558.5,560.5 C 558.804,563.522 559.304,566.522 560,569.5C 560.377,570.942 561.21,571.942 562.5,572.5C 562.5,572.833 562.5,573.167 562.5,573.5C 562.723,577.162 563.723,580.495 565.5,583.5C 565.259,585.898 565.926,587.898 567.5,589.5C 568.296,594.147 568.963,598.814 569.5,603.5C 566.051,603.624 564.051,601.957 563.5,598.5C 563.714,596.856 563.38,595.356 562.5,594C 560,593.833 557.5,593.667 555,593.5C 552.071,593.525 549.571,594.191 547.5,595.5C 546.991,598.192 545.991,600.692 544.5,603C 542.888,603.72 541.388,603.554 540,602.5C 539.878,598.019 540.711,593.685 542.5,589.5C 543.79,588.942 544.623,587.942 545,586.5C 545.696,583.522 546.196,580.522 546.5,577.5C 548.424,571.559 550.257,565.559 552,559.5C 554.611,556.757 556.778,557.09 558.5,560.5 Z"/></g>
<g><path style="opacity:1" fill="#f6f4f3" d="M 578.5,557.5 C 580.144,557.286 581.644,557.62 583,558.5C 583.667,573.167 583.667,587.833 583,602.5C 581.301,603.406 579.467,603.739 577.5,603.5C 577.183,588.089 577.517,572.755 578.5,557.5 Z"/></g>
<g><path style="opacity:1" fill="#f5f2f1" d="M 590.5,558.5 C 596.509,558.334 602.509,558.501 608.5,559C 618.254,564.057 620.088,571.224 614,580.5C 612.043,581.889 610.21,583.389 608.5,585C 611.202,589.568 614.035,594.068 617,598.5C 618,603.167 616.333,604.5 612,602.5C 608.167,596.667 604.333,590.833 600.5,585C 598.866,584.506 597.199,584.34 595.5,584.5C 595.666,590.509 595.499,596.509 595,602.5C 593.301,603.406 591.467,603.739 589.5,603.5C 589.184,588.422 589.517,573.422 590.5,558.5 Z"/></g>
<g><path style="opacity:1" fill="#f0eceb" d="M 679.5,557.5 C 680.822,557.33 681.989,557.663 683,558.5C 683.333,569.5 683.667,580.5 684,591.5C 684.891,595.562 687.391,597.562 691.5,597.5C 694.971,597.849 697.471,596.516 699,593.5C 699.333,582.167 699.667,570.833 700,559.5C 701.523,557.38 703.356,557.047 705.5,558.5C 706.666,569.819 706.832,581.152 706,592.5C 702.679,602.412 695.846,605.912 685.5,603C 681.51,601.01 679.01,597.843 678,593.5C 677.333,582.167 677.333,570.833 678,559.5C 678.717,558.956 679.217,558.289 679.5,557.5 Z"/></g>
<g><path style="opacity:1" fill="#f5f3f2" d="M 732.5,559.5 C 732.973,560.906 733.973,561.573 735.5,561.5C 736.885,562.574 738.051,563.907 739,565.5C 741.234,574.251 738.4,580.751 730.5,585C 735,590.499 738,596.666 739.5,603.5C 737.533,603.739 735.699,603.406 734,602.5C 730.489,596.805 726.989,591.139 723.5,585.5C 721.735,584.539 719.735,584.205 717.5,584.5C 717.5,589.5 717.5,594.5 717.5,599.5C 717.616,602.91 715.95,604.244 712.5,603.5C 711.518,589.245 711.184,574.912 711.5,560.5C 711.611,559.883 711.944,559.383 712.5,559C 719.217,558.244 725.883,558.411 732.5,559.5 Z"/></g>
<g><path style="opacity:1" fill="#f8f7f7" d="M 768.5,591.5 C 769.494,581.013 769.828,570.346 769.5,559.5C 770.833,559.5 772.167,559.5 773.5,559.5C 773.5,571.5 773.5,583.5 773.5,595.5C 772.219,598.447 770.219,600.781 767.5,602.5C 763.566,603.36 759.566,603.693 755.5,603.5C 751.914,602.067 749.247,599.733 747.5,596.5C 746.54,584.217 746.206,571.883 746.5,559.5C 747.932,557.353 749.765,557.02 752,558.5C 752.333,569.833 752.667,581.167 753,592.5C 755.025,597.145 758.525,598.645 763.5,597C 766.079,595.924 767.746,594.091 768.5,591.5 Z"/></g>
<g><path style="opacity:1" fill="#bdaba5" d="M 341.5,559.5 C 343.027,559.427 344.027,560.094 344.5,561.5C 342.973,561.573 341.973,560.906 341.5,559.5 Z"/></g>
<g><path style="opacity:1" fill="#b7a49d" d="M 732.5,559.5 C 734.027,559.427 735.027,560.094 735.5,561.5C 733.973,561.573 732.973,560.906 732.5,559.5 Z"/></g>
<g><path style="opacity:1" fill="#92756b" d="M 460.5,565.5 C 457.167,565.5 453.833,565.5 450.5,565.5C 450.5,569.5 450.5,573.5 450.5,577.5C 453.5,577.5 456.5,577.5 459.5,577.5C 456.375,578.479 453.042,578.813 449.5,578.5C 449.5,573.833 449.5,569.167 449.5,564.5C 453.371,564.185 457.038,564.518 460.5,565.5 Z"/></g>
<g><path style="opacity:1" fill="#7d594d" d="M 327.5,564.5 C 332.685,563.802 337.352,564.802 341.5,567.5C 343.681,572.405 342.347,575.738 337.5,577.5C 334.167,577.5 330.833,577.5 327.5,577.5C 327.5,573.167 327.5,568.833 327.5,564.5 Z"/></g>
<g><path style="opacity:1" fill="#7c594c" d="M 361.5,564.5 C 365.182,564.335 368.848,564.501 372.5,565C 375.939,567.275 377.106,570.441 376,574.5C 374.871,576.141 373.371,577.141 371.5,577.5C 368.167,577.5 364.833,577.5 361.5,577.5C 361.5,573.167 361.5,568.833 361.5,564.5 Z"/></g>
<g><path style="opacity:1" fill="#7d594d" d="M 409.5,565.5 C 410.383,574.467 410.716,583.467 410.5,592.5C 409.578,596.083 407.244,597.75 403.5,597.5C 399.076,597.733 396.409,595.733 395.5,591.5C 395.334,583.826 395.5,576.159 396,568.5C 397.039,567.756 397.539,566.756 397.5,565.5C 401.416,562.852 405.416,562.852 409.5,565.5 Z"/></g>
<g><path style="opacity:1" fill="#7a574a" d="M 460.5,565.5 C 463.525,566.033 464.858,567.867 464.5,571C 464.859,574.799 463.192,576.966 459.5,577.5C 456.5,577.5 453.5,577.5 450.5,577.5C 450.5,573.5 450.5,569.5 450.5,565.5C 453.833,565.5 457.167,565.5 460.5,565.5 Z"/></g>
<g><path style="opacity:1" fill="#7c594c" d="M 517.5,564.5 C 521.182,564.335 524.848,564.501 528.5,565C 531.813,566.936 532.979,569.77 532,573.5C 531.252,575.751 529.752,577.084 527.5,577.5C 524.167,577.5 520.833,577.5 517.5,577.5C 517.5,573.167 517.5,568.833 517.5,564.5 Z"/></g>
<g><path style="opacity:1" fill="#7c584b" d="M 607.5,565.5 C 611.685,567.913 612.519,571.246 610,575.5C 608.89,577.037 607.39,577.703 605.5,577.5C 602.5,577.5 599.5,577.5 596.5,577.5C 596.5,573.5 596.5,569.5 596.5,565.5C 600.167,565.5 603.833,565.5 607.5,565.5 Z"/></g>
<g><path style="opacity:1" fill="#7c584c" d="M 729.5,565.5 C 733.676,567.88 734.51,571.213 732,575.5C 731.097,576.701 729.931,577.535 728.5,578C 725.183,578.498 721.85,578.665 718.5,578.5C 718.5,574.167 718.5,569.833 718.5,565.5C 722.167,565.5 725.833,565.5 729.5,565.5 Z"/></g>
<g><path style="opacity:1" fill="#92746a" d="M 711.5,560.5 C 711.184,574.912 711.518,589.245 712.5,603.5C 711.169,596.699 710.503,589.533 710.5,582C 710.5,574.659 710.834,567.492 711.5,560.5 Z"/></g>
<g><path style="opacity:1" fill="#d9cfcc" d="M 558.5,560.5 C 560.125,564.303 561.458,568.303 562.5,572.5C 561.21,571.942 560.377,570.942 560,569.5C 559.304,566.522 558.804,563.522 558.5,560.5 Z"/></g>
<g><path style="opacity:1" fill="#8e6f64" d="M 607.5,565.5 C 603.833,565.5 600.167,565.5 596.5,565.5C 596.5,569.5 596.5,573.5 596.5,577.5C 599.5,577.5 602.5,577.5 605.5,577.5C 602.375,578.479 599.042,578.813 595.5,578.5C 595.5,573.833 595.5,569.167 595.5,564.5C 599.702,564.183 603.702,564.517 607.5,565.5 Z"/></g>
<g><path style="opacity:1" fill="#a68f87" d="M 729.5,565.5 C 725.833,565.5 722.167,565.5 718.5,565.5C 718.5,569.833 718.5,574.167 718.5,578.5C 717.514,574.03 717.181,569.363 717.5,564.5C 721.702,564.183 725.702,564.517 729.5,565.5 Z"/></g>
<g><path style="opacity:1" fill="#dcd3d0" d="M 773.5,595.5 C 773.5,583.5 773.5,571.5 773.5,559.5C 772.167,559.5 770.833,559.5 769.5,559.5C 769.828,570.346 769.494,581.013 768.5,591.5C 768.333,580.495 768.5,569.495 769,558.5C 771.267,557.065 773.267,557.398 775,559.5C 775.667,570.167 775.667,580.833 775,591.5C 774.79,593.058 774.29,594.391 773.5,595.5 Z"/></g>
<g><path style="opacity:1" fill="#dbd2cf" d="M 397.5,565.5 C 397.539,566.756 397.039,567.756 396,568.5C 395.5,576.159 395.334,583.826 395.5,591.5C 394.344,583.677 394.177,575.677 395,567.5C 395.708,566.619 396.542,565.953 397.5,565.5 Z"/></g>
<g><path style="opacity:1" fill="#9b8077" d="M 409.5,565.5 C 410.222,565.918 410.722,566.584 411,567.5C 411.823,576.01 411.657,584.344 410.5,592.5C 410.716,583.467 410.383,574.467 409.5,565.5 Z"/></g>
<g><path style="opacity:1" fill="#805e52" d="M 558.5,582.5 C 558.5,583.833 558.5,585.167 558.5,586.5C 556.167,586.5 553.833,586.5 551.5,586.5C 551.5,585.5 551.5,584.5 551.5,583.5C 551.925,579.794 553.259,576.461 555.5,573.5C 557.494,576.15 558.494,579.15 558.5,582.5 Z"/></g>
<g><path style="opacity:1" fill="#cdbfba" d="M 562.5,573.5 C 564.277,576.505 565.277,579.838 565.5,583.5C 563.723,580.495 562.723,577.162 562.5,573.5 Z"/></g>
<g><path style="opacity:1" fill="#a1887f" d="M 327.5,564.5 C 327.5,568.833 327.5,573.167 327.5,577.5C 330.833,577.5 334.167,577.5 337.5,577.5C 334.038,578.482 330.371,578.815 326.5,578.5C 326.181,573.637 326.514,568.97 327.5,564.5 Z"/></g>
<g><path style="opacity:1" fill="#9c8278" d="M 361.5,564.5 C 361.5,568.833 361.5,573.167 361.5,577.5C 364.833,577.5 368.167,577.5 371.5,577.5C 368.038,578.482 364.371,578.815 360.5,578.5C 360.181,573.637 360.514,568.97 361.5,564.5 Z"/></g>
<g><path style="opacity:1" fill="#a0867d" d="M 517.5,564.5 C 517.5,568.833 517.5,573.167 517.5,577.5C 520.833,577.5 524.167,577.5 527.5,577.5C 524.038,578.482 520.371,578.815 516.5,578.5C 516.181,573.637 516.514,568.97 517.5,564.5 Z"/></g>
<g><path style="opacity:1" fill="#94786d" d="M 746.5,559.5 C 746.206,571.883 746.54,584.217 747.5,596.5C 746.883,596.389 746.383,596.056 746,595.5C 745.174,583.326 745.34,571.326 746.5,559.5 Z"/></g>
<g><path style="opacity:1" fill="#b9a69f" d="M 470.5,576.5 C 470.573,578.027 469.906,579.027 468.5,579.5C 468.427,577.973 469.094,576.973 470.5,576.5 Z"/></g>
<g><path style="opacity:1" fill="#c9bab5" d="M 496.5,578.5 C 499.167,580.167 499.167,581.833 496.5,583.5C 496.5,581.833 496.5,580.167 496.5,578.5 Z"/></g>
<g><path style="opacity:1" fill="#d5cbc6" d="M 668.5,581.5 C 664.563,581.207 660.73,581.54 657,582.5C 656.316,583.784 656.483,584.951 657.5,586C 660.036,586.186 662.369,586.686 664.5,587.5C 661.813,587.664 659.146,587.497 656.5,587C 653.833,585 653.833,583 656.5,581C 660.689,580.188 664.689,580.355 668.5,581.5 Z"/></g>
<g><path style="opacity:1" fill="#c6b7b1" d="M 669.5,581.5 C 670.117,581.611 670.617,581.944 671,582.5C 671.81,586.358 671.643,590.024 670.5,593.5C 670.693,589.434 670.36,585.434 669.5,581.5 Z"/></g>
<g><path style="opacity:1" fill="#dcd3cf" d="M 546.5,577.5 C 546.196,580.522 545.696,583.522 545,586.5C 544.623,587.942 543.79,588.942 542.5,589.5C 543.542,585.303 544.875,581.303 546.5,577.5 Z"/></g>
<g><path style="opacity:1" fill="#997d74" d="M 558.5,582.5 C 559.451,583.919 559.784,585.585 559.5,587.5C 556.5,587.5 553.5,587.5 550.5,587.5C 550.232,585.901 550.566,584.568 551.5,583.5C 551.5,584.5 551.5,585.5 551.5,586.5C 553.833,586.5 556.167,586.5 558.5,586.5C 558.5,585.167 558.5,583.833 558.5,582.5 Z"/></g>
<g><path style="opacity:1" fill="#a58d84" d="M 337.5,584.5 C 334.375,585.479 331.042,585.813 327.5,585.5C 327.821,590.695 327.487,595.695 326.5,600.5C 326.5,595.167 326.5,589.833 326.5,584.5C 330.167,584.5 333.833,584.5 337.5,584.5 Z"/></g>
<g><path style="opacity:1" fill="#c2b2ac" d="M 454.5,585.5 C 452.833,585.5 451.167,585.5 449.5,585.5C 449.822,591.358 449.489,597.025 448.5,602.5C 448.5,596.5 448.5,590.5 448.5,584.5C 450.735,584.205 452.735,584.539 454.5,585.5 Z"/></g>
<g><path style="opacity:1" fill="#d1c5c0" d="M 565.5,583.5 C 567.074,585.102 567.741,587.102 567.5,589.5C 565.926,587.898 565.259,585.898 565.5,583.5 Z"/></g>
<g><path style="opacity:1" fill="#95796e" d="M 563.5,598.5 C 562.751,597.469 562.085,596.302 561.5,595C 556.748,594.227 552.081,594.393 547.5,595.5C 549.571,594.191 552.071,593.525 555,593.5C 557.5,593.667 560,593.833 562.5,594C 563.38,595.356 563.714,596.856 563.5,598.5 Z"/></g>
<g><path style="opacity:1" fill="#a0877e" d="M 723.5,585.5 C 721.833,585.5 720.167,585.5 718.5,585.5C 718.819,590.363 718.486,595.03 717.5,599.5C 717.5,594.5 717.5,589.5 717.5,584.5C 719.735,584.205 721.735,584.539 723.5,585.5 Z"/></g>
<g><path style="opacity:1" fill="#d7cdc9" d="M 567.5,589.5 C 569.199,592.92 570.532,596.587 571.5,600.5C 571.547,602.038 570.88,603.038 569.5,603.5C 568.963,598.814 568.296,594.147 567.5,589.5 Z"/></g>
<g><path style="opacity:1" fill="#d0c4c0" d="M 380.5,596.5 C 381.993,597.312 382.66,598.645 382.5,600.5C 382.48,601.726 382.147,602.726 381.5,603.5C 381.552,601.097 381.219,598.764 380.5,596.5 Z"/></g>
<g><path style="opacity:1" fill="#a0867d" d="M 767.5,602.5 C 767.389,603.117 767.056,603.617 766.5,604C 762.642,604.81 758.976,604.643 755.5,603.5C 759.566,603.693 763.566,603.36 767.5,602.5 Z"/></g>
</svg>
